{"asset":{"generator":"Khronos glTF Spline I/O v0.0.1","version":"2.0"},"scenes":[{"nodes":[0]}],"nodes":[{"name":"","children":[1,2]},{"name":"signature","matrix":[1,0,0,0,0,1,0,0,0,0,1,0,0,0,0,1],"children":[3]},{"name":"Personal Camera","camera":0,"translation":[0,6.123233995736766e-14,1000.0000000000001],"rotation":[-3.061616997868383e-17,0,0,1]},{"name":"shape","matrix":[1,0,0,0,0,1,0,0,0,0,1,0,0,0,0,1],"mesh":0}],"cameras":[{"type":"orthographic","orthographic":{"xmag":1440,"ymag":875,"zfar":100000,"znear":-100000}}],"meshes":[{"primitives":[{"attributes":{"POSITION":1,"NORMAL":2,"FACEMAP":3,"COLOR":4,"RANDOMCOLOR":5},"indices":0}]}],"buffers":[{"uri":"data:application/octet-stream;base64,","byteLength":293968}],"bufferViews":[{"buffer":0,"byteOffset":0,"byteLength":38256,"target":34963},{"buffer":0,"byteOffset":38256,"byteLength":57528,"target":34962},{"buffer":0,"byteOffset":95784,"byteLength":57528,"target":34962},{"buffer":0,"byteOffset":153312,"byteLength":6424,"target":34962},{"buffer":0,"byteOffset":159736,"byteLength":76704,"target":34962},{"buffer":0,"byteOffset":236440,"byteLength":57528,"target":34962}],"accessors":[{"bufferView":0,"byteOffset":0,"componentType":5125,"count":9564,"type":"SCALAR","min":[0],"max":[4793]},{"bufferView":1,"byteOffset":0,"componentType":5126,"count":4794,"type":"VEC3","min":[-148.26565551757812,-69.18173217773438,-20],"max":[148.26565551757812,69.18173217773438,20]},{"bufferView":2,"byteOffset":0,"componentType":5126,"count":4794,"type":"VEC3","min":[-0.9999992847442627,-0.9999999403953552,-1],"max":[0.9999873042106628,1,1]},{"bufferView":3,"byteOffset":0,"componentType":5125,"count":1606,"type":"SCALAR","min":[0],"max":[3187]},{"bufferView":4,"byteOffset":0,"componentType":5126,"count":4794,"type":"VEC4","min":[0,0,0,0],"max":[0,0,0,0]},{"bufferView":5,"byteOffset":0,"componentType":5126,"count":4794,"type":"VEC3","min":[0.04186423495411873,0.04186423495411873,0.04186423495411873],"max":[0.04186423495411873,0.04186423495411873,0.04186423495411873]}],"extensions":{"KHR_lights_punctual":{"lights":[]}},"extensionsUsed":["KHR_lights_punctual"]}