{
  "accessors": [
    {
      "bufferView": 2,
      "componentType": 5126,
      "count": 94,
      "max": [
        0.5,
        0.8549880981445313,
        0.5
      ],
      "min": [
        -0.5,
        -0.4999997615814209,
        -0.4999980926513672
      ],
      "type": "VEC3"
    },
    {
      "bufferView": 2,
      "byteOffset": 1128,
      "componentType": 5126,
      "count": 94,
      "max": [
        1.0,
        1.0,
        1.0
      ],
      "min": [
        -1.0,
        -1.0,
        -1.0
      ],
      "type": "VEC3"
    },
    {
      "bufferView": 1,
      "componentType": 5126,
      "count": 94,
      "max": [
        0.875,
        1.0
      ],
      "min": [
        0.125,
        0.0
      ],
      "type": "VEC2"
    },
    {
      "bufferView": 0,
      "componentType": 5125,
      "count": 228,
      "type": "SCALAR"
    },
    {
      "bufferView": 2,
      "byteOffset": 2256,
      "componentType": 5126,
      "count": 94,
      "max": [
        0.5540646314620972,
        1.2535278797149658,
        0.5
      ],
      "min": [
        -0.5,
        -0.10145992785692215,
        -0.4999980926513672
      ],
      "type": "VEC3"
    },
    {
      "bufferView": 2,
      "byteOffset": 3384,
      "componentType": 5126,
      "count": 94,
      "max": [
        1.0,
        1.0,
        1.0
      ],
      "min": [
        -1.0,
        -1.0,
        -1.0
      ],
      "type": "VEC3"
    },
    {
      "bufferView": 1,
      "byteOffset": 752,
      "componentType": 5126,
      "count": 94,
      "max": [
        0.875,
        1.0
      ],
      "min": [
        0.125,
        0.0
      ],
      "type": "VEC2"
    },
    {
      "bufferView": 0,
      "byteOffset": 912,
      "componentType": 5125,
      "count": 228,
      "type": "SCALAR"
    },
    {
      "bufferView": 2,
      "byteOffset": 4512,
      "componentType": 5126,
      "count": 57,
      "max": [
        2.4783756732940674,
        0.5,
        0.5
      ],
      "min": [
        -0.5,
        -1.3276634216308594,
        -0.5
      ],
      "type": "VEC3"
    },
    {
      "bufferView": 2,
      "byteOffset": 5196,
      "componentType": 5126,
      "count": 57,
      "max": [
        1.0,
        1.0,
        1.0
      ],
      "min": [
        -1.0,
        -1.0,
        -1.0
      ],
      "type": "VEC3"
    },
    {
      "bufferView": 1,
      "byteOffset": 1504,
      "componentType": 5126,
      "count": 57,
      "max": [
        0.875,
        1.0
      ],
      "min": [
        0.125,
        0.0
      ],
      "type": "VEC2"
    },
    {
      "bufferView": 0,
      "byteOffset": 1824,
      "componentType": 5125,
      "count": 108,
      "type": "SCALAR"
    },
    {
      "bufferView": 2,
      "byteOffset": 5880,
      "componentType": 5126,
      "count": 776,
      "max": [
        1.0000004768371582,
        1.0,
        1.0
      ],
      "min": [
        -1.0,
        -8.990859985351563,
        -1.0
      ],
      "type": "VEC3"
    },
    {
      "bufferView": 2,
      "byteOffset": 15192,
      "componentType": 5126,
      "count": 776,
      "max": [
        0.9576270580291748,
        1.0,
        0.9238814115524292
      ],
      "min": [
        -0.9576271772384644,
        -1.0,
        -0.9238799810409546
      ],
      "type": "VEC3"
    },
    {
      "bufferView": 1,
      "byteOffset": 1960,
      "componentType": 5126,
      "count": 776,
      "max": [
        0.65625,
        1.0
      ],
      "min": [
        0.34375,
        1.4901161193847656e-08
      ],
      "type": "VEC2"
    },
    {
      "bufferView": 0,
      "byteOffset": 2256,
      "componentType": 5125,
      "count": 1524,
      "type": "SCALAR"
    },
    {
      "bufferView": 3,
      "componentType": 5126,
      "count": 224,
      "max": [
        7.5
      ],
      "min": [
        0.0416666679084301
      ],
      "type": "SCALAR"
    },
    {
      "bufferView": 5,
      "componentType": 5126,
      "count": 224,
      "max": [
        0.672326922416687,
        1.0,
        6.153677818190241e-17,
        8.6495093663673e-17
      ],
      "min": [
        -0.004984318744391203,
        0.7402543425559998,
        -8.649565614648954e-17,
        4.159354046721323e-18
      ],
      "type": "VEC4"
    },
    {
      "bufferView": 3,
      "byteOffset": 896,
      "componentType": 5126,
      "count": 409,
      "max": [
        20.83333396911621
      ],
      "min": [
        7.5
      ],
      "type": "SCALAR"
    },
    {
      "bufferView": 4,
      "componentType": 5126,
      "count": 409,
      "max": [
        7.152857303619385,
        15.036808013916016,
        -18.048505783081055
      ],
      "min": [
        1.3502333164215088,
        12.73438835144043,
        -18.048505783081055
      ],
      "type": "VEC3"
    },
    {
      "bufferView": 3,
      "byteOffset": 2532,
      "componentType": 5126,
      "count": 286,
      "max": [
        20.83333396911621
      ],
      "min": [
        7.5
      ],
      "type": "SCALAR"
    },
    {
      "bufferView": 5,
      "byteOffset": 3584,
      "componentType": 5126,
      "count": 286,
      "max": [
        -0.3963870108127594,
        0.20243778824806213,
        0.12723535299301147,
        0.8909457921981812
      ],
      "min": [
        -0.7827988862991333,
        -0.14758354425430298,
        -0.20839045941829681,
        0.5807316899299622
      ],
      "type": "VEC4"
    }
  ],
  "animations": [
    {
      "channels": [
        {
          "sampler": 0,
          "target": {
            "node": 6,
            "path": "rotation"
          }
        },
        {
          "sampler": 1,
          "target": {
            "node": 10,
            "path": "translation"
          }
        },
        {
          "sampler": 2,
          "target": {
            "node": 10,
            "path": "rotation"
          }
        }
      ],
      "name": "Take 001",
      "samplers": [
        {
          "input": 16,
          "interpolation": "LINEAR",
          "output": 17
        },
        {
          "input": 18,
          "interpolation": "LINEAR",
          "output": 19
        },
        {
          "input": 20,
          "interpolation": "LINEAR",
          "output": 21
        }
      ]
    }
  ],
  "asset": {
    "extras": {
      "author": "emisu1004 (https://sketchfab.com/emisu1004)",
      "license": "CC-BY-4.0 (http://creativecommons.org/licenses/by/4.0/)",
      "source": "https://sketchfab.com/3d-models/mailbox-model-visualization-774637fa43474bd38036d4773f5a46a9",
      "title": "Mailbox Model Visualization"
    },
    "generator": "Sketchfab-12.67.0",
    "version": "2.0"
  },
  "bufferViews": [
    {
      "buffer": 0,
      "byteLength": 8352,
      "name": "floatBufferViews",
      "target": 34963
    },
    {
      "buffer": 0,
      "byteLength": 8168,
      "byteOffset": 8352,
      "byteStride": 8,
      "name": "floatBufferViews",
      "target": 34962
    },
    {
      "buffer": 0,
      "byteLength": 24504,
      "byteOffset": 16520,
      "byteStride": 12,
      "name": "floatBufferViews",
      "target": 34962
    },
    {
      "buffer": 0,
      "byteLength": 3676,
      "byteOffset": 41024,
      "name": "floatBufferViews"
    },
    {
      "buffer": 0,
      "byteLength": 4908,
      "byteOffset": 44700,
      "byteStride": 12,
      "name": "floatBufferViews"
    },
    {
      "buffer": 0,
      "byteLength": 8160,
      "byteOffset": 49608,
      "byteStride": 16,
      "name": "floatBufferViews"
    }
  ],
  "buffers": [
    {
      "byteLength": 57768,
      "uri": "scene.bin"
    }
  ],
  "extensionsRequired": [
    "KHR_materials_pbrSpecularGlossiness"
  ],
  "extensionsUsed": [
    "KHR_materials_pbrSpecularGlossiness"
  ],
  "materials": [
    {
      "doubleSided": true,
      "extensions": {
        "KHR_materials_pbrSpecularGlossiness": {
          "diffuseFactor": [
            0.38565,
            0.38565,
            0.38565,
            1.0
          ],
          "glossinessFactor": 0.15850323675010344,
          "specularFactor": [
            0.0,
            0.0,
            0.0
          ]
        }
      },
      "name": "blinn2"
    },
    {
      "doubleSided": true,
      "extensions": {
        "KHR_materials_pbrSpecularGlossiness": {
          "diffuseFactor": [
            0.6804882909064467,
            0.023991398754166594,
            0.023991398754166594,
            1.0
          ],
          "glossinessFactor": 0.7131380048401416,
          "specularFactor": [
            0.0,
            0.0,
            0.0
          ]
        }
      },
      "name": "lambert12"
    },
    {
      "doubleSided": true,
      "extensions": {
        "KHR_materials_pbrSpecularGlossiness": {
          "diffuseFactor": [
            0.5,
            0.5,
            0.5,
            1.0
          ],
          "glossinessFactor": 0.4,
          "specularFactor": [
            0.0,
            0.0,
            0.0
          ]
        }
      },
      "name": "lambert1"
    }
  ],
  "meshes": [
    {
      "name": "mailboxBody_blinn2_0",
      "primitives": [
        {
          "attributes": {
            "NORMAL": 1,
            "POSITION": 0,
            "TEXCOORD_0": 2
          },
          "indices": 3,
          "material": 0,
          "mode": 4
        }
      ]
    },
    {
      "name": "mailboxDoor_blinn2_0",
      "primitives": [
        {
          "attributes": {
            "NORMAL": 5,
            "POSITION": 4,
            "TEXCOORD_0": 6
          },
          "indices": 7,
          "material": 0,
          "mode": 4
        }
      ]
    },
    {
      "name": "flag_lambert12_0",
      "primitives": [
        {
          "attributes": {
            "NORMAL": 9,
            "POSITION": 8,
            "TEXCOORD_0": 10
          },
          "indices": 11,
          "material": 1,
          "mode": 4
        }
      ]
    },
    {
      "name": "screw_lambert1_0",
      "primitives": [
        {
          "attributes": {
            "NORMAL": 13,
            "POSITION": 12,
            "TEXCOORD_0": 14
          },
          "indices": 15,
          "material": 2,
          "mode": 4
        }
      ]
    }
  ],
  "nodes": [
    {
      "children": [
        1
      ],
      "matrix": [
        1.5598367951154485e-15,
        -2.689523706082704e-15,
        7.024880409240723,
        0.0,
        7.024880409240723,
        1.129686910967256e-15,
        -1.5598367951154483e-15,
        0.0,
        -1.1296869109672557e-15,
        7.024880409240723,
        2.689523706082704e-15,
        0.0,
        -0.1700320839881897,
        -2.188423059120025e-05,
        -0.1805420070886612,
        1.0
      ],
      "name": "Sketchfab_model"
    },
    {
      "children": [
        2
      ],
      "matrix": [
        0.009999999776482582,
        0.0,
        0.0,
        0.0,
        0.0,
        0.0,
        0.009999999776482582,
        0.0,
        0.0,
        -0.009999999776482582,
        0.0,
        0.0,
        0.0,
        0.0,
        0.0,
        1.0
      ],
      "name": "1310923b92fe49d2908077d6029d25ac.fbx"
    },
    {
      "children": [
        3
      ],
      "name": "Object_2"
    },
    {
      "children": [
        4,
        6,
        8,
        10
      ],
      "name": "RootNode"
    },
    {
      "children": [
        5
      ],
      "name": "mailboxBody",
      "scale": [
        6.568465232849121,
        3.1258039474487305,
        3.763859748840332
      ],
      "translation": [
        0.0,
        12.919312477111816,
        -17.5286865234375
      ]
    },
    {
      "mesh": 0,
      "name": "mailboxBody_blinn2_0"
    },
    {
      "children": [
        7
      ],
      "name": "mailboxDoor",
      "rotation": [
        0.08527297526597977,
        0.9963576197624207,
        5.578784645487926e-17,
        6.623077007778972e-17
      ],
      "scale": [
        0.4433460235595703,
        3.5410165786743164,
        4.263827800750732
      ],
      "translation": [
        3.362520694732666,
        11.247267723083496,
        -17.5286865234375
      ]
    },
    {
      "mesh": 1,
      "name": "mailboxDoor_blinn2_0"
    },
    {
      "children": [
        9
      ],
      "name": "flag",
      "scale": [
        1.3946385383605957,
        0.752505362033844,
        0.1712314784526825
      ],
      "translation": [
        -0.9122633337974548,
        13.47199821472168,
        -15.539848327636719
      ]
    },
    {
      "mesh": 2,
      "name": "flag_lambert12_0"
    },
    {
      "children": [
        11
      ],
      "name": "screw",
      "rotation": [
        -0.6561663150787354,
        -0.0,
        0.0,
        0.7546163201332092
      ],
      "scale": [
        0.50980144739151,
        0.1524195522069931,
        0.50980144739151
      ],
      "translation": [
        1.3502333164215088,
        12.73438835144043,
        -18.048505783081055
      ]
    },
    {
      "mesh": 3,
      "name": "screw_lambert1_0"
    }
  ],
  "scene": 0,
  "scenes": [
    {
      "name": "Sketchfab_Scene",
      "nodes": [
        0
      ]
    }
  ]
}
